<svg width="50" height="50" viewBox="0 0 50 50" fill="none" xmlns="http://www.w3.org/2000/svg">
<path d="M9.16782 0.295273L5.16782 3.85083C5.06107 3.94571 5 4.08171 5 4.22453V45.7755C5 45.9183 5.06107 46.0543 5.16782 46.1492L9.16782 49.7047C9.35726 49.8731 9.64274 49.8731 9.83218 49.7047L13.8322 46.1492C13.9389 46.0543 14 45.9183 14 45.7755V4.22453C14 4.08171 13.9389 3.94571 13.8322 3.85083L9.83218 0.295273C9.64274 0.126879 9.35726 0.126879 9.16782 0.295273Z" fill="#58A728"/>
<path d="M21.1678 0.295273L17.1678 3.85083C17.0611 3.94571 17 4.08171 17 4.22453V45.7755C17 45.9183 17.0611 46.0543 17.1678 46.1492L21.1678 49.7047C21.3573 49.8731 21.6427 49.8731 21.8322 49.7047L25.8322 46.1492C25.9389 46.0543 26 45.9183 26 45.7755V4.22453C26 4.08171 25.9389 3.94571 25.8322 3.85083L21.8322 0.295273C21.6427 0.126879 21.3573 0.126879 21.1678 0.295273Z" fill="#58A728"/>
<path d="M33.1678 0.295273L29.1678 3.85083C29.0611 3.94571 29 4.08171 29 4.22453V45.7755C29 45.9183 29.0611 46.0543 29.1678 46.1492L33.1678 49.7047C33.3573 49.8731 33.6427 49.8731 33.8322 49.7047L37.8322 46.1492C37.9389 46.0543 38 45.9183 38 45.7755V4.22453C38 4.08171 37.9389 3.94571 37.8322 3.85083L33.8322 0.295273C33.6427 0.126879 33.3573 0.126879 33.1678 0.295273Z" fill="#58A728"/>
<path d="M45.1678 0.295273L41.1678 3.85083C41.0611 3.94571 41 4.08171 41 4.22453V45.7755C41 45.9183 41.0611 46.0543 41.1678 46.1492L45.1678 49.7047C45.3573 49.8731 45.6427 49.8731 45.8322 49.7047L49.8322 46.1492C49.9389 46.0543 50 45.9183 50 45.7755V4.22453C50 4.08171 49.9389 3.94571 49.8322 3.85083L45.8322 0.295273C45.6427 0.126879 45.3573 0.126879 45.1678 0.295273Z" fill="#58A728"/>
<rect x="15" y="7" width="3" height="6" fill="#58A728"/>
<rect x="15" y="36" width="3" height="6" fill="#58A728"/>
<rect x="27" y="36" width="3" height="6" fill="#58A728"/>
<rect x="39" y="36" width="3" height="6" fill="#58A728"/>
<rect x="39" y="7" width="3" height="6" fill="#58A728"/>
<rect x="27" y="7" width="3" height="6" fill="#58A728"/>
<circle cx="3" cy="10" r="3" fill="#58A728"/>
<circle cx="3" cy="39" r="3" fill="#58A728"/>
</svg>
