<svg width="50" height="69" viewBox="0 0 50 69" fill="none" xmlns="http://www.w3.org/2000/svg">
<g clip-path="url(#clip0_26_204)">
<path d="M50 27.4208L27.0816 54.448L25.1938 56.6722L14.9477 68.7511L17.9412 56.7924L21.811 41.3313H0L22.9184 14.3041L35.0487 0.00281525L28.189 27.4208H50Z" fill="#F49F28"/>
<path d="M50 27.4197L28.1694 53.1599L27.0798 54.447L28.6049 48.3439C29.4991 44.7796 26.7883 41.3303 23.0944 41.3303H0L22.9184 14.303L21.3897 20.4061C20.4991 23.9704 23.21 27.4197 26.9002 27.4197H50V27.4197Z" fill="#F49F28"/>
<path d="M35.0487 0L27.3589 27.4197H28.1872L35.0487 0Z" fill="#F49F28"/>
<path d="M14.9495 68.75L22.8686 41.3303H21.811L14.9495 68.75Z" fill="#F49F28"/>
<path d="M29.6733 49.2332L28.1694 53.1599L27.0798 54.447L28.6049 48.3439C29.4991 44.7796 26.7883 41.3303 23.0944 41.3303H0L23.5939 40.7079C28.093 40.5913 31.2731 45.0501 29.6733 49.2332Z" fill="#F49F28"/>
<path d="M20.3249 19.5168L21.8287 15.5901L22.9184 14.303L21.3932 20.4061C20.4991 23.9704 23.2099 27.4197 26.9037 27.4197H49.9999L26.406 28.0421C21.9069 28.1588 18.725 23.6999 20.3249 19.5168Z" fill="#F49F28"/>
</g>
<defs>
<clipPath id="clip0_26_204">
<rect width="50" height="68.75" fill="white"/>
</clipPath>
</defs>
</svg>
