<svg width="108" height="144" viewBox="0 0 108 144" fill="none" xmlns="http://www.w3.org/2000/svg">
<path d="M8.35876 65.8962C17.2465 47.835 24.0529 30.9148 26.814 22.5C34.014 30.5 36.1473 41.8333 36.314 46.5C52.314 29.5 54.314 1.5 53.814 0C90.814 29.5 78.814 70 78.814 70.5C91.814 57.5 93.814 41 93.814 40C105.414 62.4 107.981 82 107.814 89C106.481 110.167 91.5717 147.5 47.814 143C9.91897 139.103 1.48878 114.119 0.196921 96.8796C-0.614766 86.048 3.56288 75.642 8.35876 65.8962Z" fill="#03A9F4"/>
<path d="M53.5646 67C41.0646 86.8333 23.5646 127 53.5646 129C53.5646 129.5 92.0645 128 53.5646 67Z" fill="#B3E5FC"/>
</svg>
