<svg width="50" height="76" viewBox="0 0 50 76" fill="none" xmlns="http://www.w3.org/2000/svg">
<g clip-path="url(#clip0_24_157)">
<path d="M50 25.114C50 38.9837 25 75.5814 25 75.5814C25 75.5814 0 38.9837 0 25.114C0 11.2442 11.1932 0 25 0C38.8068 0 50 11.2442 50 25.114Z" fill="#BD242B"/>
<path d="M33.3088 32.3542C37.8978 27.7442 37.8978 20.27 33.3088 15.66C28.7197 11.05 21.2794 11.05 16.6904 15.66C12.1013 20.27 12.1013 27.7442 16.6904 32.3542C21.2794 36.9641 28.7197 36.9641 33.3088 32.3542Z" fill="white"/>
<path d="M19.1048 65.9756C22.5114 71.7093 25 75.5814 25 75.5814C25 75.5814 50 38.9837 50 25.114C50 24.386 49.9618 23.6663 49.9016 22.9547C48.9154 26.8081 47.5206 30.5593 45.8075 34.1407C41.0756 44.036 34.0772 50.3756 26.624 58.4035C24.2222 60.9907 21.7208 63.55 19.1048 65.9756Z" fill="#BD242B"/>
</g>
<defs>
<clipPath id="clip0_24_157">
<rect width="50" height="75.5814" fill="white"/>
</clipPath>

</defs>
</svg>
