<svg width="50" height="69" viewBox="0 0 50 69" fill="none" xmlns="http://www.w3.org/2000/svg">
<path fill-rule="evenodd" clip-rule="evenodd" d="M25 69C18.3221 69 12.0441 66.4011 7.32206 61.6832C2.60074 56.9645 0 50.691 0 44.0178C0 40.8502 1.30074 36.5878 3.86618 31.3482C5.89338 27.2078 8.71618 22.4332 12.2566 17.1561C18.2735 8.18901 24.3713 0.763426 24.4324 0.689949L25 0L25.5676 0.689949C25.6287 0.76416 31.7265 8.18901 37.7426 17.1569C41.2831 22.434 44.1059 27.2085 46.1331 31.3489C48.6993 36.5878 50 40.8502 50 44.0178C50 50.691 47.3993 56.9645 42.6779 61.6832C37.9559 66.4019 31.6779 69 25 69Z" fill="#E74C3C"/>
</svg>
